<svg width="120" height="24" viewBox="0 0 120 24" fill="none" xmlns="http://www.w3.org/2000/svg">
<g clip-path="url(#clip0_255_696)">
<path d="M12.0001 17.5195L16.1501 20.0295C16.9101 20.4895 17.8401 19.8095 17.6401 18.9495L16.5401 14.2295L20.2101 11.0495C20.8801 10.4695 20.5201 9.36952 19.6401 9.29952L14.8101 8.88952L12.9201 4.42952C12.5801 3.61952 11.4201 3.61952 11.0801 4.42952L9.19007 8.87952L4.36007 9.28952C3.48007 9.35952 3.12007 10.4595 3.79007 11.0395L7.46007 14.2195L6.36007 18.9395C6.16007 19.7995 7.09007 20.4795 7.85007 20.0195L12.0001 17.5195V17.5195Z" fill="#FFBE5D"/>
<path d="M84.0001 17.5195L88.1501 20.0295C88.9101 20.4895 89.8401 19.8095 89.6401 18.9495L88.5401 14.2295L92.2101 11.0495C92.8801 10.4695 92.5201 9.36952 91.6401 9.29952L86.8101 8.88952L84.9201 4.42952C84.5801 3.61952 83.4201 3.61952 83.0801 4.42952L81.1901 8.87952L76.3601 9.28952C75.4801 9.35952 75.1201 10.4595 75.7901 11.0395L79.4601 14.2195L78.3601 18.9395C78.1601 19.7995 79.0901 20.4795 79.8501 20.0195L84.0001 17.5195V17.5195Z" fill="#FFAE1B"/>
<path d="M60.0001 17.5195L64.1501 20.0295C64.9101 20.4895 65.8401 19.8095 65.6401 18.9495L64.5401 14.2295L68.2101 11.0495C68.8801 10.4695 68.5201 9.36952 67.6401 9.29952L62.8101 8.88952L60.9201 4.42952C60.5801 3.61952 59.4201 3.61952 59.0801 4.42952L57.1901 8.87952L52.3601 9.28952C51.4801 9.35952 51.1201 10.4595 51.7901 11.0395L55.4601 14.2195L54.3601 18.9395C54.1601 19.7995 55.0901 20.4795 55.8501 20.0195L60.0001 17.5195V17.5195Z" fill="#FFAE1B"/>
<path d="M36.0001 17.5195L40.1501 20.0295C40.9101 20.4895 41.8401 19.8095 41.6401 18.9495L40.5401 14.2295L44.2101 11.0495C44.8801 10.4695 44.5201 9.36952 43.6401 9.29952L38.8101 8.88952L36.9201 4.42952C36.5801 3.61952 35.4201 3.61952 35.0801 4.42952L33.1901 8.87952L28.3601 9.28952C27.4801 9.35952 27.1201 10.4595 27.7901 11.0395L31.4601 14.2195L30.3601 18.9395C30.1601 19.7995 31.0901 20.4795 31.8501 20.0195L36.0001 17.5195V17.5195Z" fill="#FFAE1B"/>
<path d="M108 17.5195L112.15 20.0295C112.91 20.4895 113.84 19.8095 113.64 18.9495L112.54 14.2295L116.21 11.0495C116.88 10.4695 116.52 9.36952 115.64 9.29952L110.81 8.88952L108.92 4.42952C108.58 3.61952 107.42 3.61952 107.08 4.42952L105.19 8.87952L100.36 9.28952C99.4801 9.35952 99.1201 10.4595 99.7901 11.0395L103.46 14.2195L102.36 18.9395C102.16 19.7995 103.09 20.4795 103.85 20.0195L108 17.5195V17.5195Z" fill="#FFAE1B"/>
</g>
<defs>
<clipPath id="clip0_255_696">
<rect width="120" height="24" fill="white"/>
</clipPath>
</defs>
</svg>
