<svg width="28" height="28" viewBox="0 0 28 28" fill="none" xmlns="http://www.w3.org/2000/svg">
<path d="M20.125 2H8.04167C4.70495 2 2 4.70495 2 8.04167V20.125C2 23.4617 4.70495 26.1667 8.04167 26.1667H20.125C23.4617 26.1667 26.1667 23.4617 26.1667 20.125V8.04167C26.1667 4.70495 23.4617 2 20.125 2Z" stroke="#ED1277" stroke-width="2.41667" stroke-linecap="round" stroke-linejoin="round"/>
<path d="M18.8603 13.85C19.0106 14.8556 18.8375 15.8826 18.3656 16.785C17.8938 17.6874 17.1472 18.4192 16.2321 18.8762C15.3169 19.3333 14.2799 19.4924 13.2684 19.3309C12.2569 19.1694 11.3225 18.6955 10.598 17.9766C9.87358 17.2577 9.39602 16.3305 9.23325 15.3268C9.07049 14.3231 9.23081 13.294 9.69142 12.3859C10.152 11.4778 10.8895 10.737 11.7988 10.2687C12.7082 9.80052 13.7432 9.62875 14.7567 9.77787C15.7904 9.92998 16.7474 10.408 17.4864 11.1412C18.2253 11.8745 18.707 12.8242 18.8603 13.85Z" stroke="#ED1277" stroke-width="2.41667" stroke-linecap="round" stroke-linejoin="round"/>
<path d="M20.687 7.96484H20.6983" stroke="#ED1277" stroke-width="2.41667" stroke-linecap="round" stroke-linejoin="round"/>
</svg>
