<svg width="40" height="40" viewBox="0 0 40 40" fill="none" xmlns="http://www.w3.org/2000/svg">
<path d="M0 20C0 8.95431 8.95431 0 20 0V0C31.0457 0 40 8.95431 40 20V20C40 31.0457 31.0457 40 20 40V40C8.95431 40 0 31.0457 0 20V20Z" fill="#ED1277"/>
<g clip-path="url(#clip0_280_150)">
<path d="M12.5714 10.2859H17.1428L19.4285 16.0002L16.5714 17.7145C17.7953 20.1962 19.8039 22.2048 22.2856 23.4287L23.9999 20.5716L29.7142 22.8573V27.4287C29.7142 28.035 29.4734 28.6163 29.0447 29.045C28.6161 29.4736 28.0347 29.7145 27.4285 29.7145C22.9705 29.4435 18.7658 27.5505 15.6077 24.3924C12.4496 21.2343 10.5566 17.0296 10.2856 12.5716C10.2856 11.9654 10.5265 11.384 10.9551 10.9554C11.3838 10.5267 11.9651 10.2859 12.5714 10.2859" stroke="white" stroke-width="2.28571" stroke-linecap="round" stroke-linejoin="round"/>
</g>
<defs>
<clipPath id="clip0_280_150">
<rect width="27.4286" height="27.4286" fill="white" transform="translate(6.85718 5.71436)"/>
</clipPath>
</defs>
</svg>
