<svg width="20" height="17" viewBox="0 0 20 17" fill="none" xmlns="http://www.w3.org/2000/svg">
<path d="M19.301 0C19.712 0 20 0.324507 20 0.687375C20 0.944493 19.855 1.22131 19.503 1.41518C17.715 2.39804 15.645 5.79655 15.645 7.89289C18.661 7.79751 19.971 10.5698 19.971 12.3074C19.971 14.3882 18.233 16.5882 15.663 16.5882C12.423 16.5882 10.833 13.9476 10.833 11.0861C10.833 4.88627 17.667 0 19.301 0ZM8.468 0C8.878 0 9.167 0.324507 9.167 0.687375C9.167 0.944493 9.022 1.22131 8.67 1.41518C6.882 2.39804 4.812 5.79655 4.812 7.89289C7.828 7.79751 9.138 10.5698 9.138 12.3074C9.138 14.3882 7.399 16.5882 4.83 16.5882C1.589 16.5882 0 13.9476 0 11.0861C0 4.88627 6.833 0 8.468 0Z" fill="#212427"/>
</svg>
