<svg width="24" height="24" viewBox="0 0 24 24" fill="none" xmlns="http://www.w3.org/2000/svg">
<path d="M6.28207 15.1424L7.38607 14.8874L7.49557 14.8574C7.68543 14.8065 7.86016 14.7104 8.00489 14.5774C8.14962 14.4444 8.26006 14.2784 8.32679 14.0935C8.39353 13.9087 8.41458 13.7104 8.38817 13.5156C8.36175 13.3208 8.28864 13.1353 8.17507 12.9749C8.05235 12.8172 7.89935 12.6856 7.72507 12.5879C7.5192 12.4722 7.30453 12.3729 7.08307 12.2909L5.87107 11.8484C5.19144 11.5954 4.50941 11.3489 3.82507 11.1089C3.37957 10.9499 3.00007 10.8119 2.67457 10.7099C2.61307 10.6904 2.54407 10.6724 2.48857 10.6529C2.19579 10.5505 1.88949 10.4918 1.57957 10.4789C1.41818 10.4721 1.25731 10.5016 1.10882 10.5652C0.960331 10.6288 0.827999 10.7249 0.721573 10.8464C0.666312 10.9101 0.613765 10.9762 0.564072 11.0444C0.47006 11.19 0.392105 11.3454 0.331572 11.5079C0.106572 12.1724 -0.0059275 12.8699 0.00157249 13.5719C0.00457249 14.2064 0.0210725 15.0209 0.370572 15.5729C0.454733 15.7142 0.567059 15.8368 0.700573 15.9329C0.949572 16.1039 1.20007 16.1264 1.46107 16.1444C1.85107 16.1729 2.23057 16.0769 2.60707 15.9899L6.27757 15.1409L6.28207 15.1424ZM18.6106 9.27589C18.3085 8.64308 17.9029 8.06514 17.4106 7.56589C17.2849 7.44629 17.1466 7.34067 16.9981 7.25089C16.9246 7.21128 16.8496 7.17475 16.7731 7.14139C16.6242 7.07905 16.4632 7.05086 16.302 7.05891C16.1408 7.06695 15.9835 7.11103 15.8416 7.18789C15.6286 7.29289 15.4006 7.46089 15.0976 7.74289C15.0556 7.78489 15.0031 7.83289 14.9566 7.87639C14.7061 8.11039 14.4271 8.40139 14.0956 8.73889C13.5856 9.25489 13.0806 9.77589 12.5806 10.3019L11.6836 11.2319C11.5204 11.4024 11.371 11.5855 11.2366 11.7794C11.1224 11.9439 11.0424 12.1295 11.0011 12.3254C10.976 12.4752 10.9795 12.6284 11.0116 12.7769C11.0116 12.7839 11.0131 12.7904 11.0161 12.7964C11.0859 13.1044 11.2729 13.3732 11.5375 13.5457C11.8022 13.7182 12.1235 13.7808 12.4336 13.7204L12.5446 13.6994L17.3221 12.5954C17.6986 12.5084 18.0811 12.4274 18.4201 12.2324C18.6466 12.1004 18.8626 11.9699 19.0111 11.7074C19.0894 11.5621 19.1368 11.4023 19.1506 11.2379C19.2256 10.5869 18.8836 9.84739 18.6106 9.27589ZM10.0591 11.2844C10.4041 10.8494 10.4041 10.2014 10.4341 9.67189C10.5391 7.90039 10.6486 6.12889 10.7356 4.35739C10.7686 3.68539 10.8406 3.02239 10.8016 2.34739C10.7686 1.78939 10.7641 1.14889 10.4116 0.691391C9.79207 -0.115609 8.46607 -0.0496095 7.56007 0.0748905C7.28207 0.112891 7.00557 0.164891 6.73057 0.230891C6.45653 0.29581 6.18487 0.370356 5.91607 0.454391C5.04607 0.739391 3.82657 1.25989 3.62107 2.26039C3.50407 2.82589 3.78007 3.40489 3.99457 3.92089C4.25407 4.54639 4.60957 5.10889 4.93207 5.69839C5.78707 7.25239 6.65707 8.79739 7.52407 10.3439C7.78207 10.8059 8.06407 11.3894 8.56657 11.6294C8.59957 11.6444 8.63357 11.6569 8.66857 11.6669C8.89357 11.7524 9.13807 11.7689 9.37207 11.7149L9.41407 11.7044C9.63053 11.6464 9.82642 11.529 9.97957 11.3654L10.0591 11.2844ZM9.64507 16.0259C9.49251 15.8138 9.27002 15.6623 9.01678 15.5981C8.76353 15.5339 8.49575 15.5611 8.26057 15.6749C8.18436 15.7136 8.11159 15.7588 8.04307 15.8099C7.84875 15.9647 7.67442 16.1431 7.52407 16.3409C7.48507 16.3904 7.44907 16.4564 7.40407 16.4969L6.63607 17.5544C6.20107 18.1454 5.77057 18.7419 5.34457 19.3439C5.06707 19.7339 4.82557 20.0624 4.63657 20.3534L4.52857 20.5184C4.30057 20.8709 4.17157 21.1274 4.10557 21.3569C4.05493 21.5084 4.03954 21.6695 4.06057 21.8279C4.08007 21.9929 4.13557 22.1534 4.22257 22.2959C4.26857 22.3659 4.31857 22.4349 4.37257 22.5029C4.4877 22.6351 4.61697 22.7543 4.75807 22.8584C5.73733 23.5202 6.8732 23.9133 8.05207 23.9984C8.22753 24.0041 8.40308 23.9905 8.57557 23.9579C8.65806 23.9374 8.73963 23.9133 8.82007 23.8859C8.97612 23.8268 9.11815 23.7359 9.23707 23.6189C9.35135 23.507 9.43856 23.3706 9.49207 23.2199C9.58057 22.9994 9.63907 22.7174 9.67657 22.3004L9.69457 22.1054C9.72457 21.7589 9.73957 21.3524 9.76207 20.8739C9.79907 20.1389 9.82907 19.4044 9.85207 18.6704L9.90157 17.3654C9.92087 17.0515 9.89306 16.7365 9.81907 16.4309C9.78086 16.288 9.72322 16.1515 9.64507 16.0259ZM18.3196 18.0689C18.0988 17.8453 17.8473 17.6544 17.5726 17.5019L17.4046 17.4014C17.1061 17.2214 16.7476 17.0324 16.3261 16.8044C15.6821 16.4514 15.0346 16.1039 14.3836 15.7619L13.2331 15.1514C13.1731 15.1334 13.1131 15.0914 13.0561 15.0629C12.8343 14.9513 12.5995 14.8676 12.3571 14.8139C12.273 14.7976 12.1877 14.7886 12.1021 14.7869C11.8411 14.7885 11.589 14.882 11.3902 15.051C11.1913 15.22 11.0583 15.4536 11.0146 15.7109C10.998 15.8573 11.003 16.0054 11.0296 16.1504C11.0866 16.4564 11.2246 16.7594 11.3656 17.0249L11.9806 18.1769C12.3216 18.8269 12.6696 19.4739 13.0246 20.1179C13.2526 20.5379 13.4446 20.8979 13.6216 21.1964C13.6576 21.2534 13.6916 21.3094 13.7236 21.3644C13.9411 21.7229 14.1151 21.9494 14.2921 22.1099C14.4092 22.2236 14.5503 22.3097 14.7049 22.3619C14.8596 22.414 15.024 22.431 15.1861 22.4114C15.2707 22.4005 15.3547 22.386 15.4381 22.3679C15.6072 22.3214 15.7706 22.2565 15.9256 22.1744C16.3941 21.9132 16.8254 21.5903 17.2081 21.2144C17.6671 20.7644 18.0736 20.2694 18.3901 19.7054C18.4351 19.6254 18.4731 19.5429 18.5041 19.4579C18.533 19.3785 18.5585 19.2979 18.5806 19.2164C18.5996 19.1334 18.6141 19.0494 18.6241 18.9644C18.6393 18.7987 18.6199 18.6317 18.5671 18.4739C18.5166 18.3218 18.4319 18.1832 18.3196 18.0689Z" fill="#ED1277"/>
</svg>
